<svg width="35" height="31" viewBox="0 0 35 31" fill="none" xmlns="http://www.w3.org/2000/svg">
<g id="iconoir:delivery-truck">
<g id="Group">
<path id="Vector" d="M11.8333 24.5417C12.5848 24.5417 13.3054 24.2695 13.8368 23.785C14.3682 23.3006 14.6667 22.6435 14.6667 21.9583C14.6667 21.2732 14.3682 20.6161 13.8368 20.1316C13.3054 19.6472 12.5848 19.375 11.8333 19.375C11.0819 19.375 10.3612 19.6472 9.82986 20.1316C9.29851 20.6161 9 21.2732 9 21.9583C9 22.6435 9.29851 23.3006 9.82986 23.785C10.3612 24.2695 11.0819 24.5417 11.8333 24.5417ZM26 24.5417C26.7514 24.5417 27.4721 24.2695 28.0035 23.785C28.5348 23.3006 28.8333 22.6435 28.8333 21.9583C28.8333 21.2732 28.5348 20.6161 28.0035 20.1316C27.4721 19.6472 26.7514 19.375 26 19.375C25.2486 19.375 24.5279 19.6472 23.9965 20.1316C23.4652 20.6161 23.1667 21.2732 23.1667 21.9583C23.1667 22.6435 23.4652 23.3006 23.9965 23.785C24.5279 24.2695 25.2486 24.5417 26 24.5417Z" stroke="#F8F8F8" stroke-width="1.5" stroke-miterlimit="1.5" stroke-linecap="round" stroke-linejoin="round"/>
<path id="Vector_2" d="M14.7373 21.9583H21.7498V8.525C21.7498 8.31946 21.6603 8.12233 21.5009 7.97699C21.3415 7.83165 21.1253 7.75 20.8998 7.75H1.9165M8.504 21.9583H5.59984C5.48821 21.9583 5.37768 21.9383 5.27456 21.8993C5.17143 21.8604 5.07773 21.8033 4.9988 21.7313C4.91987 21.6594 4.85726 21.5739 4.81454 21.4799C4.77182 21.3859 4.74984 21.2851 4.74984 21.1833V14.8542" stroke="#F8F8F8" stroke-width="1.5" stroke-linecap="round"/>
<path id="Vector_3" d="M3.33301 11.625H8.99967" stroke="#F8F8F8" stroke-width="1.5" stroke-linecap="round" stroke-linejoin="round"/>
<path id="Vector_4" d="M21.75 11.625H29.6975C29.8618 11.625 30.0226 11.6685 30.1604 11.7501C30.2981 11.8317 30.407 11.948 30.4738 12.0848L33.0097 17.2877C33.058 17.3865 33.0831 17.4934 33.0833 17.6015V21.1833C33.0833 21.2851 33.0613 21.3859 33.0186 21.4799C32.9759 21.5739 32.9133 21.6594 32.8344 21.7313C32.7554 21.8033 32.6617 21.8604 32.5586 21.8993C32.4555 21.9383 32.345 21.9583 32.2333 21.9583H29.5417M21.75 21.9583H23.1667" stroke="#F8F8F8" stroke-width="1.5" stroke-linecap="round"/>
</g>
</g>
</svg>
