<svg width="36" height="37" viewBox="0 0 36 37" fill="none" xmlns="http://www.w3.org/2000/svg">
<path opacity="0.2" d="M32.625 13.875V27.75C32.625 28.0567 32.5065 28.3508 32.2955 28.5676C32.0845 28.7844 31.7984 28.9062 31.5 28.9062H4.5C4.20163 28.9062 3.91548 28.7844 3.7045 28.5676C3.49353 28.3508 3.375 28.0567 3.375 27.75V13.875H32.625Z" fill="#F8F8F8"/>
<path d="M31.5 6.9375H4.5C3.90326 6.9375 3.33097 7.18114 2.90901 7.61482C2.48705 8.04849 2.25 8.63669 2.25 9.25V27.75C2.25 28.3633 2.48705 28.9515 2.90901 29.3852C3.33097 29.8189 3.90326 30.0625 4.5 30.0625H31.5C32.0967 30.0625 32.669 29.8189 33.091 29.3852C33.5129 28.9515 33.75 28.3633 33.75 27.75V9.25C33.75 8.63669 33.5129 8.04849 33.091 7.61482C32.669 7.18114 32.0967 6.9375 31.5 6.9375ZM31.5 9.25V12.7188H4.5V9.25H31.5ZM31.5 27.75H4.5V15.0312H31.5V27.75ZM29.25 24.2812C29.25 24.5879 29.1315 24.882 28.9205 25.0988C28.7095 25.3157 28.4234 25.4375 28.125 25.4375H23.625C23.3266 25.4375 23.0405 25.3157 22.8295 25.0988C22.6185 24.882 22.5 24.5879 22.5 24.2812C22.5 23.9746 22.6185 23.6805 22.8295 23.4637C23.0405 23.2468 23.3266 23.125 23.625 23.125H28.125C28.4234 23.125 28.7095 23.2468 28.9205 23.4637C29.1315 23.6805 29.25 23.9746 29.25 24.2812ZM20.25 24.2812C20.25 24.5879 20.1315 24.882 19.9205 25.0988C19.7095 25.3157 19.4234 25.4375 19.125 25.4375H16.875C16.5766 25.4375 16.2905 25.3157 16.0795 25.0988C15.8685 24.882 15.75 24.5879 15.75 24.2812C15.75 23.9746 15.8685 23.6805 16.0795 23.4637C16.2905 23.2468 16.5766 23.125 16.875 23.125H19.125C19.4234 23.125 19.7095 23.2468 19.9205 23.4637C20.1315 23.6805 20.25 23.9746 20.25 24.2812Z" fill="#F8F8F8"/>
</svg>
